<svg width="63" height="30" viewBox="0 0 63 30" fill="none" xmlns="http://www.w3.org/2000/svg">
<g clip-path="url(#clip0_269_10)">
<path d="M14.9542 0C12.4939 0 10.1344 1.21005 8.39467 3.36396L2.71704 10.3934C0.977348 12.5473 0 15.4686 0 18.5147C0 24.8579 4.15327 30 9.27659 30C11.7369 30 14.0964 28.7899 15.8361 26.636L19.7633 21.7737L31.206 7.6066C32.0369 6.57791 33.1638 6 34.3388 6C36.306 6 37.9738 7.58741 38.552 9.78407L42.1633 5.31296C40.5159 2.11834 37.6272 0 34.3388 0C31.8785 0 29.519 1.21005 27.7793 3.36396L12.4094 22.3934C11.5785 23.4221 10.4516 24 9.27659 24C6.82972 24 4.84615 21.5442 4.84615 18.5147C4.84615 17.0599 5.31293 15.6647 6.14379 14.636L11.8214 7.6066C12.6523 6.57791 13.7792 6 14.9542 6C16.9215 6 18.5892 7.58748 19.1674 9.78421L22.7788 5.31307C21.1313 2.1184 18.2426 0 14.9542 0Z" fill="black"/>
<path d="M31.7939 22.3934C30.963 23.4221 29.8361 24 28.6611 24C26.6941 24 25.0265 22.413 24.4481 20.2167L20.8369 24.6877C22.4844 27.8819 25.373 30 28.6611 30C31.1214 30 33.4809 28.7899 35.2206 26.636L50.5905 7.6066C51.4214 6.57791 52.5483 6 53.7233 6C56.1702 6 58.1537 8.45584 58.1537 11.4853C58.1537 12.9401 57.687 14.3353 56.8561 15.364L51.1785 22.3934C50.3476 23.4221 49.2208 24 48.0457 24C46.0786 24 44.4109 22.4127 43.8326 20.2162L40.2214 24.6873C41.8688 27.8818 44.7574 30 48.0457 30C50.506 30 52.8655 28.7899 54.6052 26.636L60.2828 19.6066C62.0225 17.4527 62.9999 14.5314 62.9999 11.4853C62.9999 5.14214 58.8467 0 53.7233 0C51.263 0 48.9035 1.21005 47.1638 3.36396L31.7939 22.3934Z" fill="url(#paint0_linear_269_10)"/>
</g>
<defs>
<linearGradient id="paint0_linear_269_10" x1="47.5" y1="4.5" x2="31.5" y2="38.5" gradientUnits="userSpaceOnUse">
<stop offset="0.15" stop-color="#B132FF"/>
<stop offset="1" stop-color="#9E00FF" stop-opacity="0"/>
</linearGradient>
<clipPath id="clip0_269_10">
<rect width="63" height="30" fill="white"/>
</clipPath>
</defs>
</svg>
